<svg width="237" height="54" viewBox="0 0 237 54" fill="none" xmlns="http://www.w3.org/2000/svg">
<path d="M13.9466 19.272C21.5583 19.272 29.8318 18.626 38.1053 17.979L67.2281 13.453C78.1491 11.514 86.0919 9.57398 91.3868 8.92798C109.589 6.34198 127.128 4.40198 144.006 3.75598H145.33C147.978 3.75598 154.265 3.75598 161.877 2.46298H169.489C174.784 1.81698 181.072 1.16998 186.367 1.16998C197.288 0.523983 204.9 0.523987 208.54 0.523987H210.855C211.517 0.523987 212.179 0.523983 212.51 1.16998C213.502 1.81598 213.834 3.10898 214.164 5.04898C214.495 7.63498 214.164 9.57499 212.84 11.514L211.848 12.16C210.855 12.806 208.538 12.806 204.899 13.453L176.769 17.332C163.2 18.625 152.941 19.918 145.991 21.211C139.041 21.857 129.775 23.15 118.854 25.09C96.6806 27.676 78.4792 31.555 59.9461 36.729L47.3703 39.96C54.6513 39.314 58.9531 38.667 59.9461 38.667L60.2768 38.021H61.2694C61.6 38.021 61.9312 38.021 62.5931 37.375C63.9168 37.375 65.9024 37.375 68.2191 36.729L93.7015 34.143C99.3276 33.497 108.263 33.497 119.846 32.85L145.99 30.911C168.824 28.972 198.278 28.325 234.02 28.325C237.991 28.325 237.991 39.963 234.02 39.963C197.286 39.963 168.163 40.609 145.99 42.549L120.838 44.487C109.587 45.133 101.312 45.133 96.0177 45.78C95.6871 45.78 95.6871 45.78 95.3559 46.426L94.694 47.719H94.0322C93.3703 48.365 87.7442 48.365 77.1545 49.012C72.1903 49.658 68.2191 49.658 65.9024 49.658H62.5931C60.9387 49.658 56.6363 50.304 49.3554 51.597L31.4846 53.535C23.2111 54.828 16.9232 55.475 12.6209 55.475H6.00228C5.00975 54.828 4.34738 54.828 4.0167 54.828C3.68603 54.182 3.02417 54.182 2.69298 54.182L1.03859 51.596C0.045543 48.364 0.376729 43.837 2.69298 41.899C3.35484 41.253 4.0167 41.253 5.00975 41.253H7.326C12.9521 39.314 17.9158 38.021 22.2181 36.081L50.3484 27.676C36.1182 29.615 23.873 30.908 13.9451 30.908C9.97497 30.909 9.97497 19.272 13.9466 19.272Z" fill="#1566CC" fill-opacity="0.2"/>
</svg>
