<svg width="24" height="24" viewBox="0 0 24 24" fill="none" xmlns="http://www.w3.org/2000/svg">
<g clip-path="url(#clip0_299_1370)">
<path d="M19.7136 17.1742C19.716 17.1766 19.716 17.179 19.716 17.179C19.716 17.179 15.6336 20.3422 12 23.0926C10.7136 24.067 9.05999 23.9014 9.05999 22.7254V18.6454C4.18799 18.643 0.23999 14.5294 0.23999 9.45824C0.23999 4.38464 4.18799 0.273438 9.05999 0.273438H14.94C19.812 0.273438 23.76 4.38704 23.76 9.45824C23.76 12.6982 22.1448 15.5374 19.7136 17.1742ZM14.5728 1.74704H9.42719C5.16479 1.74704 1.70879 5.20064 1.70879 9.46304C1.70879 13.7254 5.16479 17.179 9.42719 17.179H10.5288V20.9158C10.5288 21.7318 11.2632 21.5878 11.2632 21.5878L18.612 16.075H18.5328C20.7816 14.7286 22.2888 12.2734 22.2888 9.46304C22.2888 5.20064 18.8352 1.74704 14.5728 1.74704Z" fill="#5B7083"/>
</g>
<defs>
<clipPath id="clip0_299_1370">
<rect width="24" height="24" fill="white"/>
</clipPath>
</defs>
</svg>
