<svg width="25" height="25" viewBox="0 0 25 25" fill="none" xmlns="http://www.w3.org/2000/svg">
<g clip-path="url(#clip0_306_1378)">
<path d="M6.80029 12.4081C7.72056 11.1949 8.77431 10.0454 9.54324 8.72903C10.4644 7.14735 11.1413 5.42596 11.9121 3.7599C11.9901 3.58926 11.9487 3.36518 11.9722 3.16735C12.0361 2.64606 12.0399 2.10508 12.1903 1.6091C12.3708 1.00906 12.8699 0.739972 13.4979 0.750285C15.314 0.781225 16.6713 2.20727 16.5529 4.17337C16.4861 5.29189 16.1242 6.39354 15.8836 7.50081C15.768 8.03242 15.6176 8.55746 15.5076 9.09469C15.478 9.3021 15.4651 9.51153 15.4691 9.72099C16.4711 9.5841 17.4262 9.43221 18.3831 9.32814C19.4266 9.19887 20.4856 9.28309 21.4955 9.57566C23.211 10.0941 23.9771 11.6008 23.4967 13.0897C23.4606 13.265 23.4911 13.4474 23.5823 13.6016C24.2083 14.6901 24.2205 15.758 23.5353 16.824C23.4457 16.9743 23.4139 17.1519 23.446 17.3238C23.728 18.5267 23.4817 19.5739 22.6263 20.4815C22.5212 20.5879 22.4536 20.7254 22.4336 20.8734C22.3302 22.7354 21.5951 23.6974 19.8194 24.2993C18.4442 24.7681 17.0257 24.7859 15.5988 24.7353C14.0825 24.6809 12.5644 24.6481 11.0501 24.559C9.8807 24.4896 8.71603 24.3359 7.54666 24.2459C7.28346 24.2252 7.00991 24.3003 6.74389 24.349C6.40925 24.4109 6.07836 24.5431 5.74372 24.5525C4.78961 24.5815 3.83362 24.5703 2.87857 24.5609C1.58606 24.544 0.69869 23.7208 0.68647 22.4373C0.659523 19.7365 0.659523 17.0347 0.68647 14.332C0.69869 13.0916 1.4695 12.3031 2.74415 12.2299C3.78944 12.1709 4.84131 12.2046 5.89036 12.2299C6.19493 12.2337 6.49479 12.3453 6.80029 12.4081ZM7.93394 22.8845C8.02135 22.9165 8.11172 22.9397 8.20373 22.9539C11.1102 23.0983 14.0167 23.2642 16.9242 23.3692C18.0372 23.4096 19.1464 23.2558 20.1371 22.6717C20.9183 22.2113 21.2097 21.5738 21.0349 20.7028C20.9503 20.2809 21.0978 19.9968 21.4231 19.7315C22.207 19.0911 22.4129 18.3092 22.0134 17.396C21.8254 16.9722 21.9091 16.6647 22.1835 16.3299C22.8848 15.473 22.8857 14.858 22.1685 13.986C21.8997 13.6597 21.8865 13.3606 22.0519 12.9978C22.5219 11.9562 22.1995 11.1433 21.0894 10.877C20.3154 10.693 19.5187 10.6222 18.7243 10.667C17.6847 10.7279 16.6563 10.9361 15.6223 11.1142C14.8844 11.2408 14.3185 10.9623 14.1737 10.2901C14.0896 9.95741 14.0714 9.61153 14.1201 9.27189C14.2969 8.34463 14.5093 7.41831 14.7669 6.50605C15.0141 5.61535 15.2594 4.73497 15.1927 3.79646C15.1175 2.76513 14.42 2.09852 13.3945 2.15383C13.3672 2.37416 13.2817 2.61231 13.3211 2.82889C13.4734 3.66239 13.1679 4.38807 12.8446 5.11656C12.5212 5.84506 12.2288 6.58293 11.8763 7.29642C11.1431 8.79654 10.4221 10.3248 9.21518 11.5155C8.31089 12.4062 7.83618 13.3297 7.89916 14.677C8.02136 17.4025 7.93394 20.1374 7.93394 22.8845ZM6.55119 18.3767C6.55119 17.0969 6.55119 15.818 6.55119 14.5382C6.55119 13.7882 6.33687 13.581 5.56888 13.5791C4.67775 13.5791 3.78286 13.5791 2.89455 13.5791C2.29483 13.5791 2.02598 13.8379 2.02504 14.4229C2.02066 17.0594 2.02066 19.6958 2.02504 22.3323C2.02504 22.8948 2.29107 23.1686 2.85225 23.1761C3.79226 23.1855 4.73227 23.1855 5.67228 23.1761C6.33029 23.1705 6.55401 22.9351 6.55589 22.2592C6.55401 20.97 6.55119 19.6752 6.55119 18.3767Z" fill="#65676B"/>
</g>
<defs>
<clipPath id="clip0_306_1378">
<rect width="23.3846" height="24" fill="white" transform="translate(0.666748 0.75)"/>
</clipPath>
</defs>
</svg>
