<svg width="24" height="25" viewBox="0 0 24 25" fill="none" xmlns="http://www.w3.org/2000/svg">
<g clip-path="url(#clip0_304_1371)">
<path d="M7.48132 19.8393C5.82941 19.7316 4.29231 19.7639 2.81899 19.5011C1.09055 19.1931 0.0254256 17.7415 0.0169216 15.9646C-0.00433844 12.0877 -0.00433844 8.21083 0.0169216 4.33395C0.0173994 3.85894 0.111305 3.38878 0.293154 2.95095C0.475002 2.51312 0.741147 2.11638 1.07604 1.78392C1.41094 1.45146 1.80787 1.18994 2.24365 1.01464C2.67943 0.839338 3.14533 0.753766 3.61412 0.762923C9.06803 0.745692 14.5248 0.745692 19.9843 0.762923C22.1444 0.762923 23.6496 2.28783 23.6602 4.46318C23.6772 8.22806 23.6772 11.9944 23.6602 15.7621C23.6602 18.0732 22.121 19.6691 19.8334 19.7251C18.207 19.7661 16.5742 19.6971 14.9436 19.7596C14.4726 19.7866 14.0239 19.9714 13.668 20.2851C12.3754 21.5085 11.1359 22.79 9.90496 24.078C9.41811 24.5863 8.82283 24.9977 8.2403 24.5842C7.84061 24.2977 7.56848 23.6192 7.51321 23.0765C7.40478 22.0254 7.48132 20.9464 7.48132 19.8393ZM8.71653 23.1497L8.98228 23.2897C10.3663 21.866 11.7248 20.4144 13.1492 19.0359C13.5266 18.6953 14.0055 18.4922 14.5099 18.4587C16.2107 18.3919 17.9115 18.4372 19.6123 18.4307C21.4024 18.4307 22.4059 17.4959 22.4229 15.691C22.4597 12.0324 22.4597 8.37093 22.4229 4.70656C22.408 2.90382 21.5427 2.01214 19.7356 2.00137C14.4589 1.97552 9.18212 1.97552 3.90538 2.00137C2.12592 2.01645 1.27552 2.94905 1.27552 4.76472C1.27552 8.31708 1.27552 11.8694 1.27552 15.4218C1.27552 17.5218 2.17481 18.4372 4.22428 18.4372C5.71248 18.4372 7.1773 18.4372 8.72078 18.4372L8.71653 23.1497Z" fill="#65676B"/>
</g>
<defs>
<clipPath id="clip0_304_1371">
<rect width="23.6667" height="24" fill="white" transform="translate(0 0.75)"/>
</clipPath>
</defs>
</svg>
