<svg width="25" height="25" viewBox="0 0 25 25" fill="none" xmlns="http://www.w3.org/2000/svg">
<path d="M2.16667 22.5C2.08954 22.5108 2.01129 22.5108 1.93417 22.5C1.77753 22.4491 1.64199 22.3481 1.54846 22.2126C1.45493 22.0771 1.40862 21.9145 1.41667 21.75V21C1.41696 17.6109 2.62518 14.3328 4.82445 11.7542C7.02372 9.17551 10.0701 7.46513 13.4167 6.93V3.75C13.4167 3.61072 13.4555 3.47418 13.5287 3.3557C13.6019 3.23722 13.7067 3.14147 13.8313 3.07918C13.9558 3.01689 14.0953 2.99052 14.234 3.00303C14.3727 3.01554 14.5052 3.06643 14.6167 3.15L23.6167 9.9C23.7098 9.96986 23.7854 10.0604 23.8375 10.1646C23.8896 10.2687 23.9167 10.3836 23.9167 10.5C23.9167 10.6164 23.8896 10.7313 23.8375 10.8354C23.7854 10.9396 23.7098 11.0301 23.6167 11.1L14.6167 17.85C14.5052 17.9336 14.3727 17.9845 14.234 17.997C14.0953 18.0095 13.9558 17.9831 13.8313 17.9208C13.7067 17.8585 13.6019 17.7628 13.5287 17.6443C13.4555 17.5258 13.4167 17.3893 13.4167 17.25V14.4375C9.78489 15.0302 6.53269 17.0295 4.36417 20.0025L2.77417 22.1925C2.70435 22.288 2.61291 22.3657 2.50732 22.4192C2.40174 22.4726 2.28501 22.5003 2.16667 22.5V22.5ZM14.9167 5.25V7.59C14.9178 7.77541 14.8502 7.95467 14.7269 8.09317C14.6037 8.23167 14.4335 8.31961 14.2492 8.34C11.4212 8.64853 8.77757 9.89398 6.739 11.8782C4.70043 13.8624 3.38401 16.4714 2.99917 19.29L3.11917 19.1325C4.40262 17.3702 6.04316 15.8983 7.9338 14.8128C9.82444 13.7272 11.9227 13.0525 14.0917 12.8325C14.1962 12.8228 14.3016 12.8351 14.4011 12.8687C14.5006 12.9023 14.5919 12.9564 14.6692 13.0275C14.7469 13.0976 14.809 13.1832 14.8516 13.2788C14.8943 13.3744 14.9164 13.4778 14.9167 13.5825V15.75L21.9142 10.5L14.9167 5.25Z" fill="#65676B"/>
</svg>
