<svg width="5216" height="4258" viewBox="0 0 5216 4258" fill="none" xmlns="http://www.w3.org/2000/svg">
<path d="M0 104.5C0 104.5 119 249 255.5 249C412 249 603.472 14.5672 771 1.50002C1021 -18 1082 199.5 1475.5 199.5C1797.64 199.5 1951 1.50002 2306.5 1.50002C2662 1.50002 2744.5 156 3146.5 156C3548.5 156 3636 55.5 4006.5 55.5C4377 55.5 4446 104.5 4854 104.5C5180.4 104.5 5215.5 55.5 5215.5 55.5V4257.5H0.5L0 104.5Z" fill="url(#paint0_linear)" fill-opacity="0.2"/>
<path d="M0.5 74.5C45.3333 125.833 162.5 226.6 282.5 225C432.5 223 568 31 789 31C1010 31 1114 204.5 1378.5 204.5C1643 204.5 2092.5 73 2583 73C3073.5 73 3101.5 134.5 3554 134.5C4006.5 134.5 4510.5 31 4825 31C5076.6 31 5215.5 45.5 5215.5 45.5V4257H0.5V74.5Z" fill="url(#paint1_linear)" fill-opacity="0.2"/>
<path d="M0 174C51.1667 120 194.2 12 357 12C560.5 12 673 134.5 1200.5 134.5C1728 134.5 1800.5 38.5 2355 38.5C2909.5 38.5 4155 164.5 5216 164.5V4257.5H0V174Z" fill="url(#paint2_linear)" fill-opacity="0.2"/>
<path d="M0 181C32.8333 175.167 122.3 164.6 213.5 169C327.5 174.5 460.5 261.5 723.5 265.5C986.5 269.5 1355 44 1787.5 34.5C2220 25 2439 169 3103.5 169C3768 169 3739.5 34.5 4375.5 34.5C4884.3 34.5 5215.5 133.5 5215.5 133.5V4257.5H0.5L0 181Z" fill="url(#paint3_linear)" fill-opacity="0.2"/>
<defs>
<linearGradient id="paint0_linear" x1="2.57537e-05" y1="1662" x2="5216" y2="1662" gradientUnits="userSpaceOnUse">
<stop stop-color="#59D4FF"/>
<stop offset="0.373088" stop-color="#E93AF4"/>
<stop offset="1" stop-color="#59D4FF"/>
</linearGradient>
<linearGradient id="paint1_linear" x1="5.59591e-05" y1="1346.5" x2="5216" y2="1346.5" gradientUnits="userSpaceOnUse">
<stop stop-color="#59D4FF"/>
<stop offset="0.375" stop-color="#E93AF4"/>
<stop offset="1" stop-color="#59D4FF"/>
</linearGradient>
<linearGradient id="paint2_linear" x1="-2.6898e-05" y1="1355.5" x2="5216" y2="1355.5" gradientUnits="userSpaceOnUse">
<stop stop-color="#59D4FF"/>
<stop offset="0.375175" stop-color="#E93AF4"/>
<stop offset="1" stop-color="#59D4FF"/>
</linearGradient>
<linearGradient id="paint3_linear" x1="5.82772e-06" y1="1804" x2="5216" y2="1804" gradientUnits="userSpaceOnUse">
<stop stop-color="#59D4FF"/>
<stop offset="0.380208" stop-color="#E93AF4"/>
<stop offset="1" stop-color="#59D4FF"/>
</linearGradient>
</defs>
</svg>
