<svg width="25" height="26" viewBox="0 0 25 26" fill="none" xmlns="http://www.w3.org/2000/svg">
<path d="M0.516413 13.2045C0.498014 7.14271 5.04248 1.91474 10.9035 1.25665C17.1938 0.549502 22.9648 4.54916 24.2363 10.5517C24.8516 13.365 24.4534 16.3051 23.112 18.8535C22.9118 19.3238 22.8815 19.8491 23.0261 20.3393C23.4002 21.6044 23.9093 22.8266 24.3386 24.0753C24.6472 24.9726 24.3386 25.3016 23.4268 25.0972C22.7685 24.9501 22.1082 24.7988 21.4622 24.6088C19.611 24.0204 17.6216 24.0283 15.775 24.6313C8.1314 27.0204 0.540945 21.2038 0.516413 13.2045ZM22.9832 23.7831C22.5212 22.5037 22.1553 21.3939 21.7157 20.3087C21.586 20.0378 21.5308 19.7373 21.556 19.438C21.5811 19.1387 21.6857 18.8516 21.8588 18.6062C23.2142 16.4378 23.6026 14.0159 23.2224 11.5491C22.4047 6.25775 17.7539 1.7492 11.1754 2.46247C5.68643 3.06538 1.62238 7.99496 1.71641 13.3353C1.85134 21.1446 9.92016 26.2969 17.0098 23.0269C17.6227 22.782 18.2924 22.7154 18.9416 22.8348C20.2316 23.0432 21.4929 23.4234 22.9832 23.7831Z" fill="black" stroke="black" stroke-width="0.7"/>
</svg>
