<svg width="31" height="26" viewBox="0 0 31 26" fill="none" xmlns="http://www.w3.org/2000/svg">
<path d="M15.0001 25.8913C14.6046 25.8923 14.2128 25.8151 13.8472 25.664C13.4817 25.513 13.1496 25.2912 12.8701 25.0113L2.57011 14.7113C1.75645 13.8888 1.1146 12.9126 0.681954 11.8396C0.249311 10.7666 0.0345247 9.6182 0.0501074 8.46135C0.0579471 7.40119 0.274866 6.35299 0.688439 5.37679C1.10201 4.4006 1.70411 3.51558 2.46026 2.77245C3.2164 2.02931 4.11172 1.44265 5.09494 1.04607C6.07817 0.649498 7.12997 0.450794 8.19011 0.461346C9.26922 0.450477 10.3395 0.656422 11.3376 1.06697C12.3356 1.47752 13.241 2.0843 14.0001 2.85135L15.0001 3.85135L15.8201 3.03135C17.236 1.57791 19.1307 0.686859 21.1532 0.523221C23.1757 0.359582 25.189 0.934449 26.8201 2.14135C27.7486 2.8564 28.5141 3.76106 29.0657 4.79511C29.6172 5.82915 29.9421 6.96883 30.0188 8.13827C30.0954 9.3077 29.922 10.48 29.5102 11.5772C29.0983 12.6744 28.4574 13.6712 27.6301 14.5013L17.1301 25.0113C16.8506 25.2912 16.5185 25.513 16.153 25.664C15.7874 25.8151 15.3956 25.8923 15.0001 25.8913ZM8.15011 2.45135C6.56063 2.44972 5.03287 3.06657 3.89011 4.17135C3.3075 4.73189 2.8442 5.4044 2.528 6.14848C2.21181 6.89256 2.04926 7.69287 2.05011 8.50135C2.04134 9.39066 2.20919 10.2729 2.54393 11.0968C2.87866 11.9208 3.37362 12.6701 4.00011 13.3013L14.3001 23.6013C14.3931 23.6951 14.5037 23.7695 14.6255 23.8202C14.7474 23.871 14.8781 23.8971 15.0101 23.8971C15.1421 23.8971 15.2728 23.871 15.3947 23.8202C15.5165 23.7695 15.6271 23.6951 15.7201 23.6013L26.2301 13.0813C26.847 12.4514 27.3237 11.698 27.6287 10.8707C27.9338 10.0435 28.0604 9.16101 28.0001 8.28135C27.9467 7.39266 27.7019 6.52601 27.2825 5.7407C26.8631 4.95539 26.279 4.26997 25.5701 3.73135C24.3262 2.81424 22.7914 2.3806 21.2515 2.51123C19.7116 2.64185 18.2717 3.32782 17.2001 4.44135L15.7101 5.97135C15.6171 6.06508 15.5065 6.13947 15.3847 6.19024C15.2628 6.24101 15.1321 6.26715 15.0001 6.26715C14.8681 6.26715 14.7374 6.24101 14.6155 6.19024C14.4937 6.13947 14.3831 6.06508 14.2901 5.97135L12.5901 4.27135C11.4192 3.11062 9.83882 2.45692 8.19011 2.45135H8.15011Z" fill="black"/>
</svg>
