<svg width="26" height="26" viewBox="0 0 26 26" fill="none" xmlns="http://www.w3.org/2000/svg">
<path d="M13.05 1.17578H24.4033C25.5783 1.17578 25.7795 1.49999 25.232 2.52367C21.3632 9.76719 17.4879 17.0107 13.6061 24.2542C13.407 24.6251 13.1337 25.1464 12.6692 25.1758C12.2402 24.8553 12.0936 24.3742 12.0071 23.9323C11.2303 19.9996 10.5227 16.0536 9.73296 12.1232C9.59065 11.5282 9.29117 10.9849 8.86745 10.5533C6.30339 7.94632 3.69388 5.39488 1.12765 2.79902C0.826883 2.50813 0.566108 2.1432 0.478516 1.6199C0.9192 1.24558 1.36133 1.20243 1.80491 1.19799C5.55256 1.17578 9.30237 1.17578 13.05 1.17578ZM23.0618 3.96705L22.8887 3.81383C19.0653 6.16986 15.2333 8.50369 11.4294 10.9019C11.2815 11.0263 11.1639 11.1844 11.0862 11.3637C11.0084 11.543 10.9725 11.7385 10.9815 11.9345C11.1978 13.4622 11.5267 14.9744 11.821 16.4889C12.2018 18.4541 12.5956 20.4193 13.0392 22.7154L23.0618 3.96705ZM2.72235 2.50813C2.81507 2.65523 2.91774 2.79547 3.0296 2.92782C5.27343 5.17282 7.53457 7.3934 9.75676 9.66061C10.2739 10.1891 10.6223 9.88266 11.055 9.62064C14.5127 7.48888 17.9697 5.36231 21.426 3.24092C21.7397 3.04551 22.0405 2.82567 22.5208 2.49925L2.72235 2.50813Z" fill="black" stroke="black" stroke-width="0.5"/>
</svg>
