<svg width="31" height="26" viewBox="0 0 31 26" fill="none" xmlns="http://www.w3.org/2000/svg">
<g clip-path="url(#clip0_507_5)">
<path d="M15.0001 25.8913C14.6046 25.8923 14.2128 25.8151 13.8472 25.664C13.4817 25.513 13.1496 25.2912 12.8701 25.0113L2.57011 14.7113C1.75645 13.8888 1.1146 12.9126 0.681954 11.8396C0.249311 10.7666 0.0345247 9.6182 0.0501074 8.46135C0.0579471 7.40119 0.274866 6.35299 0.688439 5.37679C1.10201 4.4006 1.70411 3.51558 2.46026 2.77245C3.2164 2.02931 4.11172 1.44265 5.09494 1.04607C6.07817 0.649498 7.12997 0.450794 8.19011 0.461346C9.26922 0.450477 10.3395 0.656422 11.3376 1.06697C12.3356 1.47752 13.241 2.0843 14.0001 2.85135L15.0001 3.85135L15.8201 3.03135C17.236 1.57791 19.1307 0.686859 21.1532 0.523221C23.1757 0.359582 25.189 0.934449 26.8201 2.14135C27.7486 2.8564 28.5141 3.76106 29.0657 4.79511C29.6172 5.82915 29.9421 6.96883 30.0188 8.13827C30.0954 9.3077 29.922 10.48 29.5102 11.5772C29.0983 12.6744 28.4574 13.6712 27.6301 14.5013L17.1301 25.0113C16.8506 25.2912 16.5185 25.513 16.153 25.664C15.7874 25.8151 15.3956 25.8923 15.0001 25.8913Z" fill="#ED4956"/>
</g>
<defs>
<clipPath id="clip0_507_5">
<rect width="31" height="26" fill="white"/>
</clipPath>
</defs>
</svg>
