<svg width="24" height="24" viewBox="0 0 24 24" fill="none" xmlns="http://www.w3.org/2000/svg">
<path d="M17.4352 8.31002L17.4352 8.30999H17.4299C16.1828 8.30999 15.1799 7.31077 15.1799 6.13999V2.64999C15.1799 2.61542 15.1895 2.59388 15.2012 2.57784C15.2148 2.55924 15.2375 2.54025 15.2692 2.52778C15.3326
                    2.50287 15.3965 2.51366 15.4464 2.56355C16.4448 3.56197 17.9436 5.07447 19.2558 6.39863C19.8878 7.03637 20.4765 7.63042 20.9452 8.10232L20.9464 8.10355C20.9722 8.12937 20.9793 8.15048 20.9818 8.16561C20.9847 8.18366 20.9827 8.20721 20.9715
                    8.23266C20.9494 8.28243 20.903 8.31999 20.8299 8.31999C19.699 8.31999 18.382 8.31999 17.4352 8.31002ZM20.8299 8.81999C21.3999 8.81999 21.6999 8.14999 21.2999 7.74999C20.8321 7.27896 20.2441 6.68552 19.6125 6.04817C18.2998 4.72353 16.7992
                    3.20922 15.7999 2.20999C15.3899 1.79999 14.6799 2.07999 14.6799 2.64999V6.13999C14.6799 7.59999 15.9199 8.80999 17.4299 8.80999C18.3798 8.81999 19.6997 8.81999 20.8296 8.81999H20.8299Z" fill="white" stroke="white"></path>
<path d="M17.61 10.69H20.5C20.7739 10.69 21 10.9161 21 11.19V16.43C21 18.0923 20.4239 19.3476 19.5277 20.1893C18.6266 21.0356 17.3629 21.5 15.93 21.5H8.07C6.63711 21.5 5.37343 21.0356 4.4723 20.1893C3.57612
                    19.3476 3 18.0923 3 16.43V7.57C3 5.90766 3.57612 4.65241 4.4723 3.81071C5.37343 2.96436 6.63711 2.5 8.07 2.5H12.31C12.5839 2.5 12.81 2.72614 12.81 3V5.89C12.81 8.53614 14.9639 10.69 17.61 10.69ZM7.5 18.25H11.5C12.1861 18.25 12.75 17.6861
                    12.75 17C12.75 16.3139 12.1861 15.75 11.5 15.75H7.5C6.81386 15.75 6.25 16.3139 6.25 17C6.25 17.6861 6.81386 18.25 7.5 18.25ZM7.5 14.25H13.5C14.1861 14.25 14.75 13.6861 14.75 13C14.75 12.3139 14.1861 11.75 13.5 11.75H7.5C6.81386 11.75 6.25
                    12.3139 6.25 13C6.25 13.6861 6.81386 14.25 7.5 14.25Z" fill="white" stroke="white"></path>
</svg>