<svg width="24" height="24" viewBox="0 0 24 24" fill="none" xmlns="http://www.w3.org/2000/svg">
<path fill-rule="evenodd" clip-rule="evenodd" d="M12.402 21.825L12 22.001L11.598 21.825C6.431 18.6575 1 11.4475 1 7.44295C1.0175 4.16395 3.702 1.50195 7 1.50195C9.0845 1.50195 10.9245 2.56595 12 4.17645C13.0755 2.56595 14.9155 1.50195 17 1.50195C20.298 1.50195 22.9825 4.16395 23 7.44295C23 11.4475 17.569 18.6575 12.402 21.825ZM17 2.49745C15.323 2.49745 13.7655 3.33095 12.8325 4.72745L12 5.97395L11.1675 4.72695C10.2345 3.33095 8.677 2.49745 7 2.49745C4.258 2.49745 2.0145 4.71845 2 7.44295C2 10.975 7.117 17.847 12 20.9015C16.883 17.847 22 10.9755 22 7.44795C21.9855 4.71845 19.742 2.49745 17 2.49745Z" fill="#5B7083" stroke="#5B7083" stroke-width="0.5"/>
</svg>
